<svg width="512px" xmlns="http://www.w3.org/2000/svg" viewBox="0 0 512 512">
    <path fill="white" d="M167.466 15.797c52.697-19.425 110.302-20.981 163.973-4.542 37.12 11.45 70.922 31.129 99.034 57.34l26.89-26.89c20.16-20.159 54.637-5.882 54.637 22.63v127.592H384.406c-28.509 0-42.784-34.469-22.628-54.628l23.411-23.41c-20.742-18.865-45.491-33.073-72.592-41.434-40.251-12.414-83.468-11.25-122.99 3.335-39.523 14.568-73.159 41.721-95.725 77.288-22.565 35.568-32.808 77.561-29.15 119.524 3.658 41.963 21.015 81.554 49.389 112.68 28.374 31.126 66.21 52.062 107.657 59.57 41.448 7.507 84.226 1.171 121.722-18.022 37.497-19.192 67.623-50.192 85.77-88.214 7.613-15.949 26.713-22.707 42.663-15.094 15.949 7.613 22.707 26.714 15.094 42.663-24.195 50.682-64.384 92.003-114.378 117.597-49.993 25.59-107.014 34.029-162.278 23.99-55.263-10.038-105.701-37.942-143.541-79.446-37.84-41.504-60.982-94.298-65.86-150.252-4.878-55.95 8.787-111.953 38.906-159.373 30.12-47.42 74.969-83.634 127.994-103.057z"/>
</svg>